<?xml version="1.0" encoding="UTF-8" standalone="no"?>
<!-- Created with Inkscape (http://www.inkscape.org/) -->

<svg
   width="10000"
   height="10000"
   viewBox="0 0 2645.8333 2645.8333"
   version="1.1"
   id="svg1"
   xml:space="preserve"
   inkscape:version="1.4.2 (ebf0e940d0, 2025-05-08)"
   sodipodi:docname="Hog-logo.svg"
   inkscape:export-filename="Hog-logo-discord.png"
   inkscape:export-xdpi="50"
   inkscape:export-ydpi="50"
   xmlns:inkscape="http://www.inkscape.org/namespaces/inkscape"
   xmlns:sodipodi="http://sodipodi.sourceforge.net/DTD/sodipodi-0.dtd"
   xmlns:xlink="http://www.w3.org/1999/xlink"
   xmlns="http://www.w3.org/2000/svg"
   xmlns:svg="http://www.w3.org/2000/svg"><sodipodi:namedview
     id="namedview1"
     pagecolor="#ffffff"
     bordercolor="#000000"
     borderopacity="0.25"
     inkscape:showpageshadow="2"
     inkscape:pageopacity="0.0"
     inkscape:pagecheckerboard="0"
     inkscape:deskcolor="#d1d1d1"
     inkscape:document-units="px"
     showguides="true"
     inkscape:zoom="0.125"
     inkscape:cx="5472"
     inkscape:cy="5412"
     inkscape:window-width="2536"
     inkscape:window-height="1390"
     inkscape:window-x="0"
     inkscape:window-y="0"
     inkscape:window-maximized="1"
     inkscape:current-layer="layer2"><sodipodi:guide
       position="1984.375,1322.9167"
       orientation="0,1"
       id="guide27"
       inkscape:locked="false"
       inkscape:label=""
       inkscape:color="rgb(0,134,229)" /><sodipodi:guide
       position="1322.9167,2645.8333"
       orientation="-1,0"
       id="guide28"
       inkscape:locked="false"
       inkscape:label=""
       inkscape:color="rgb(0,134,229)" /><sodipodi:guide
       position="1984.375,1190.625"
       orientation="0,1"
       id="guide42"
       inkscape:locked="false"
       inkscape:label=""
       inkscape:color="rgb(0,134,229)" /><sodipodi:guide
       position="661.45831,1984.375"
       orientation="4999.9999,0"
       id="guide67"
       inkscape:locked="false" /><sodipodi:guide
       position="661.45831,661.45836"
       orientation="0,4999.9999"
       id="guide68"
       inkscape:locked="false" /><sodipodi:guide
       position="1984.3749,661.45836"
       orientation="-4999.9999,0"
       id="guide69"
       inkscape:locked="false" /><sodipodi:guide
       position="1984.3749,1984.375"
       orientation="0,-4999.9999"
       id="guide70"
       inkscape:locked="false" /><sodipodi:guide
       position="1984.3749,661.4584"
       orientation="-4999.9998,0"
       id="guide72"
       inkscape:locked="false" /><sodipodi:guide
       position="1984.3749,1984.375"
       orientation="0,-4999.9998"
       id="guide73"
       inkscape:locked="false" /><sodipodi:guide
       position="661.4583,661.4584"
       orientation="0,4999.9998"
       id="guide74"
       inkscape:locked="false" /><sodipodi:guide
       position="1984.3749,661.4584"
       orientation="-4999.9998,0"
       id="guide75"
       inkscape:locked="false" /><sodipodi:guide
       position="1217.0833,1984.375"
       orientation="0,800.00014"
       id="guide79"
       inkscape:locked="false" /><sodipodi:guide
       position="1984.3749,1322.9167"
       orientation="-1,0"
       id="guide81"
       inkscape:locked="false"
       inkscape:label=""
       inkscape:color="rgb(0,134,229)" /><sodipodi:guide
       position="1428.75,661.4584"
       orientation="0,-800.00014"
       id="guide83"
       inkscape:locked="false" /><sodipodi:guide
       position="1.0583333,1790.6382"
       orientation="-1,0"
       id="guide87"
       inkscape:locked="false"
       inkscape:label=""
       inkscape:color="rgb(0,134,229)" /><sodipodi:guide
       position="1984.375,1455.2083"
       orientation="0,1"
       id="guide88"
       inkscape:locked="false"
       inkscape:label=""
       inkscape:color="rgb(0,134,229)" /><sodipodi:guide
       position="661.45833,767.29166"
       orientation="0,1"
       id="guide92"
       inkscape:locked="false"
       inkscape:label=""
       inkscape:color="rgb(0,134,229)" /><sodipodi:guide
       position="1984.375,1891.7708"
       orientation="0,1"
       id="guide94"
       inkscape:locked="false"
       inkscape:label=""
       inkscape:color="rgb(0,134,229)" /><sodipodi:guide
       position="661.45833,1746.25"
       orientation="0,1"
       id="guide5"
       inkscape:label=""
       inkscape:locked="false"
       inkscape:color="rgb(0,134,229)" /><sodipodi:guide
       position="1984.375,899.58332"
       orientation="0,1"
       id="guide8"
       inkscape:label=""
       inkscape:locked="false"
       inkscape:color="rgb(0,134,229)" /><sodipodi:guide
       position="1984.375,529.16666"
       orientation="0,1"
       id="guide14"
       inkscape:label=""
       inkscape:locked="false"
       inkscape:color="rgb(0,134,229)" /><sodipodi:guide
       position="661.45833,1613.9583"
       orientation="0,1"
       id="guide16"
       inkscape:label=""
       inkscape:locked="false"
       inkscape:color="rgb(0,134,229)" /><sodipodi:guide
       position="1984.375,1031.875"
       orientation="0,1"
       id="guide18"
       inkscape:label=""
       inkscape:locked="false"
       inkscape:color="rgb(0,134,229)" /><sodipodi:guide
       position="2540,1984.375"
       orientation="-1,0"
       id="guide21"
       inkscape:label=""
       inkscape:locked="false"
       inkscape:color="rgb(0,134,229)" /><sodipodi:guide
       position="1984.375,870.47916"
       orientation="0,1"
       id="guide1"
       inkscape:label=""
       inkscape:locked="false"
       inkscape:color="rgb(0,134,229)" /><sodipodi:guide
       position="1861.7737,767.2917"
       orientation="0,463.37462"
       id="guide37"
       inkscape:locked="false" /><sodipodi:guide
       position="1940.8179,740.8274"
       orientation="0,-173.81934"
       id="guide40"
       inkscape:locked="false" /></sodipodi:namedview><defs
     id="defs1"><linearGradient
       id="linearGradient44"
       inkscape:collect="always"><stop
         style="stop-color:#ae1633;stop-opacity:1;"
         offset="0"
         id="stop43" /><stop
         style="stop-color:#e89089;stop-opacity:1;"
         offset="1"
         id="stop44" /></linearGradient><linearGradient
       id="linearGradient41"
       inkscape:collect="always"><stop
         style="stop-color:#ae1633;stop-opacity:1;"
         offset="0.1144633"
         id="stop41" /><stop
         style="stop-color:#e89089;stop-opacity:1;"
         offset="1"
         id="stop42" /></linearGradient><rect
       x="961.66522"
       y="1776.2522"
       width="6211.2259"
       height="5588.972"
       id="rect99" /><linearGradient
       inkscape:collect="always"
       xlink:href="#linearGradient41"
       id="linearGradient46"
       x1="265.57162"
       y1="954.06195"
       x2="977.96991"
       y2="1691.772"
       gradientUnits="userSpaceOnUse"
       gradientTransform="translate(-9.2532505)" /><linearGradient
       inkscape:collect="always"
       xlink:href="#linearGradient44"
       id="linearGradient48"
       x1="1431.9199"
       y1="1316.3018"
       x2="2602.9766"
       y2="1316.3018"
       gradientUnits="userSpaceOnUse"
       spreadMethod="pad" /><linearGradient
       inkscape:collect="always"
       xlink:href="#linearGradient41"
       id="linearGradient11"
       gradientUnits="userSpaceOnUse"
       gradientTransform="translate(-9.2532505)"
       x1="265.57162"
       y1="954.06195"
       x2="977.96991"
       y2="1691.772"
       spreadMethod="reflect" /></defs><g
     inkscape:groupmode="layer"
     id="layer4"
     inkscape:label="Back Outlines"
     transform="translate(-2.1792961e-5,3.5175041e-5)"
     style="display:inline"><path
       id="path3"
       style="display:none;fill:url(#linearGradient11);stroke-width:0.264583"
       d="m 1170.3008,508.78711 c 0.1389,41.45248 0.2857,82.90495 0.4277,124.35742 -80.6353,19.28731 -158.1222,51.48485 -228.87498,94.67774 -26.55159,-25.87371 -52.73735,-52.1481 -80.17969,-77.08399 -5.31513,-4.10434 -13.64489,-3.11909 -18.03407,1.89917 -18.42068,18.38328 -36.90104,36.70738 -55.33511,55.07827 -26.64208,26.51032 -53.25918,53.04399 -79.79684,79.65733 -16.47851,0.005 -32.95703,0.0107 -49.43554,0.0156 0,74.79623 0,149.59245 0,224.38865 10.26692,0 20.53385,0 30.80078,0 -24.45171,50.8365 -43.58112,104.2475 -56.75782,159.1055 -41.26268,0.063 -82.52639,0.4212 -123.77929,1.3496 0,12.8294 0,25.6589 0,38.4883 -25.22201,0 -50.44401,0 -75.66602,0 0,-66.3151 0,-132.6302 0,-198.9453 44.09701,0 88.19401,0 132.29102,0 0,-74.79625 0,-149.59248 0,-224.3887 -162.99089,0 -325.98177,0 -488.972659,0 0,74.79622 0,149.59245 0,224.3887 44.097659,0 88.195309,0 132.292969,0 0,207.4258 0,414.8516 0,622.2773 -44.09766,0 -88.19531,0 -132.292969,0 0,74.7969 0,149.5938 0,224.3907 162.990889,0 325.981769,0 488.972659,0 0,-74.7969 0,-149.5938 0,-224.3907 -44.09701,0 -88.19401,0 -132.29102,0 0,-66.3144 0,-132.6289 0,-198.9433 25.22201,0 50.44401,0 75.66602,0 0,13.3092 0,26.6185 0,39.9277 41.27929,0 82.55859,0 123.83789,0 13.191,54.7993 32.11739,108.2202 56.57812,159.0078 -10.22656,0 -20.45312,0.01 -30.67968,0.012 0,74.7969 0,149.5938 0,224.3907 16.4095,0 32.81901,0 49.22851,0 48.98889,49.2083 97.97813,98.4164 146.9668,147.625 28.85931,-29.3054 57.71876,-58.6107 86.57812,-87.9161 70.2993,42.5259 146.9383,74.8019 226.8632,94.0517 0.7394,0.2017 1.5639,0.3284 2.252,0.5753 -0.1011,2.1851 -0.01,4.3842 -0.046,6.5758 -0.1044,38.9279 0.331,77.8543 0.7181,116.7797 101.1393,0.1209 202.2787,0.2463 303.418,0.3672 0,-41.2663 0,-82.5326 0,-123.7989 80.6562,-19.2452 158.135,-51.5101 228.9004,-94.6953 25.1975,24.5988 50.3409,49.2882 76.8398,72.4903 3.236,3.3629 7.9323,5.6882 12.6797,5.0781 4.3111,-0.4458 7.9525,-3.2481 10.6855,-6.4492 21.8926,-21.5131 43.7852,-43.0261 65.6778,-64.5391 110.8568,0 221.7135,0 332.5703,0 0,-44.097 0,-88.194 0,-132.291 97.0143,0 194.0286,0 291.043,0 0,-97.0137 0,-194.0274 0,-291.041 44.097,0 88.194,0 132.291,0 0,-118.8939 0,-237.7878 0,-356.6817 -206.6009,0 -413.2018,0 -619.8028,0 -6.2837,-22.5077 -13.4879,-44.7573 -21.6601,-66.6523 169.7239,0 339.4479,0 509.1719,0 0,-74.7962 0,-149.59249 0,-224.38871 -97.0144,0 -194.0287,0 -291.043,0 0,-48.50716 0,-97.01432 0,-145.52149 -114.4896,0 -228.9792,10e-6 -343.4688,0 -22.8171,-22.72778 -45.6336,-45.45621 -68.4511,-68.18359 -28.8262,29.28186 -57.6524,58.56381 -86.4785,87.8457 -70.5727,-42.66849 -147.5258,-75.02957 -227.7724,-94.26062 -0.4806,-0.23771 -1.5407,-0.018 -1.3096,-0.8175 -0.1479,-37.12581 -0.2778,-74.25322 -0.4124,-111.37812 -0.1098,-3.17206 -1.4052,-6.27982 -3.6464,-8.53693 -2.8988,-3.05819 -7.2465,-4.69245 -11.4421,-4.19564 -20.6374,0.0765 -41.2749,-0.0156 -61.9124,-0.012 -75.7366,-0.0729 -151.4732,-0.1471 -227.2098,-0.21912 0,0.17643 0,0.35287 0,0.5293 z m 150.6855,326.90234 c 32.1723,0.0881 64.2877,3.59349 95.7111,10.3856 42.4982,9.10398 83.7259,23.93973 122.4421,43.62838 0.7855,0.39769 1.5711,0.79537 2.3566,1.19305 -0.04,84.55989 -0.034,169.11982 -0.039,253.67972 -44.097,0 -88.194,0 -132.291,0 0,118.8939 0,237.7877 0,356.6816 44.097,0 88.194,0 132.291,0 0,86.194 0,172.388 0,258.582 -37.0167,18.3343 -76.2368,32.1799 -116.5289,41.0879 -55.0717,12.1802 -112.3175,15.2332 -168.3572,8.2111 -34.5433,-4.3109 -68.6522,-12.5746 -101.3449,-24.6432 -2.3867,-0.8781 -4.7917,-1.8028 -7.1869,-2.7046 0,-49.2454 0.01,-98.4909 0.012,-147.7363 -44.097,0 -88.194,0 -132.291,0 0,-207.4258 0,-414.8516 0,-622.2774 44.097,0 88.194,0 132.291,0 0,-47.80009 0,-95.60022 0,-143.40035 41.7476,-16.07432 85.7311,-26.5531 130.2532,-30.67672 14.1946,-1.32484 28.4203,-1.98624 42.6823,-2.01078 z m 445.8106,288.54685 c 17.6374,39.1973 29.8761,80.8858 36.1473,123.4102 11.9594,80.3693 3.8358,163.5222 -22.7996,240.2578 -4.2903,12.3687 -9.0558,24.5737 -14.3048,36.5762 0,-134.1153 0,-268.2305 0,-402.3457 0.3191,0.7005 0.6381,1.401 0.9571,2.1015 z m 502.2578,244.7285 c 0,66.3151 0,132.6303 0,198.9454 -94.9271,0 -189.8542,0 -284.7813,0 8.1926,-21.8905 15.4188,-44.1383 21.6993,-66.6524 65.4765,0 130.9531,0 196.4296,0 0,-44.0976 0,-88.1953 0,-132.293 22.2175,0 44.4349,0 66.6524,0 z"
       inkscape:label="Common Outline - Hidden" /></g><g
     inkscape:groupmode="layer"
     id="layer2"
     inkscape:label="Gear"
     transform="matrix(14.398624,0,0,14.398624,-11914.922,-9752.4394)"
     style="display:inline"><path
       id="path48"
       style="display:inline;fill:#ae1633;stroke-width:0.0183756"
       inkscape:label="gear outline"
       d="m 910.14258,714.01367 c 0.0114,2.78581 0.0235,5.57162 0.0352,8.35742 -6.18467,1.34032 -12.11221,3.80862 -17.44531,7.20899 -1.97375,-1.89235 -3.94916,-3.91991 -5.92187,-5.72852 -3.8519,3.83924 -7.74508,7.65491 -11.53321,11.54688 0.008,0.92003 -0.0414,1.85325 0.0703,2.76367 1.4733,1.45247 2.94661,2.90495 4.41992,4.35742 -3.37857,5.35375 -5.87385,11.27608 -7.21094,17.4707 -2.77286,0.01 -5.54615,10e-4 -8.31836,0.0703 0,6.11328 0,12.22656 0,18.33984 2.77344,0 5.54688,0 8.32031,0 1.34127,6.18074 3.79281,12.11433 7.20899,17.43555 -1.46866,1.61359 -3.20457,3.00824 -4.49024,4.7832 0.0115,0.82878 -0.042,1.67132 0.0703,2.49024 3.84994,3.86683 7.7024,7.73126 11.55078,11.5996 1.93461,-1.96766 3.87266,-3.93203 5.80859,-5.89843 5.35421,3.37705 11.27475,5.87695 17.4707,7.20898 0.002,2.76502 -10e-4,5.53015 0.041,8.29492 6.12305,0.008 12.24609,0.0171 18.36914,0.0254 0,-2.77343 0,-5.54687 0,-8.32031 6.18508,-1.33692 12.10965,-3.81162 17.44336,-7.20898 1.94964,1.88711 3.85381,3.82329 5.9043,5.60156 4.31812,-4.24624 8.63958,-8.48941 12.96093,-12.73242 -1.96766,-1.93461 -3.93203,-3.87266 -5.89843,-5.8086 3.37643,-5.35447 5.87713,-11.2747 7.20898,-17.4707 2.78585,-0.0385 5.57438,0.01 8.35742,-0.14453 -0.0122,-6.08854 -0.0249,-12.17708 -0.0371,-18.26563 -2.77343,0 -5.54687,0 -8.32031,0 -1.34065,-6.18378 -3.80847,-12.11123 -7.20898,-17.44335 1.89262,-2.04302 3.82192,-4.05153 5.74023,-6.07032 -4.29708,-4.25885 -8.59079,-8.52121 -12.87305,-12.79492 -1.93396,1.96766 -3.87135,3.93204 -5.80664,5.89844 -5.35428,-3.37693 -11.27514,-5.87575 -17.4707,-7.20899 -0.013,-2.79101 -0.0264,-5.58203 -0.0391,-8.37304 -6.13542,-0.007 -12.27084,-0.0144 -18.40625,-0.0215 z m 10.21875,19.9961 c 13.7296,0.51335 26.83298,9.6201 31.78387,22.47786 5.00749,12.82228 1.72624,28.52161 -8.2321,38.08286 -9.53631,9.34303 -24.61286,12.64897 -37.09951,7.79063 -10.76263,-4.0361 -19.32496,-13.59576 -21.90539,-24.83378 -0.0698,-0.77475 0.20189,-1.64215 -0.21484,-2.34179 -0.62634,-0.12768 -0.22809,-0.95036 -0.43862,-1.37871 -0.44683,-3.52635 -0.3007,-7.11187 0.28237,-10.61348 0.71091,-0.21167 0.23629,-1.0938 0.40876,-1.60615 0.75453,-4.20194 2.58657,-8.16779 4.87267,-11.75814 6.51953,-9.88387 18.25568,-16.08137 30.10992,-15.82453 0.14429,0.002 0.28858,0.003 0.43287,0.005 z" /><path
       d="M 1217.0833,555.62499 V 669.97977 A 661.45814,661.45823 44.999995 0 0 936.05603,786.38506 l -80.86121,-80.86121 -149.67097,149.67097 80.86121,80.86121 A 661.45814,661.45823 44.999995 0 0 669.97977,1217.0833 H 555.62499 V 1428.75 h 114.35478 a 661.45814,661.45823 44.999995 0 0 116.40529,281.0273 l -80.86121,80.8612 149.67097,149.6709 80.86121,-80.8612 a 661.45814,661.45823 44.999995 0 0 281.02727,116.4053 v 114.3548 H 1428.75 v -114.3548 a 661.45814,661.45823 44.999995 0 0 281.0273,-116.4053 l 80.8612,80.8612 149.6709,-149.6709 -80.8612,-80.8612 A 661.45814,661.45823 44.999995 0 0 1975.8535,1428.75 h 114.3548 V 1217.0833 H 1975.8535 A 661.45814,661.45823 44.999995 0 0 1859.4482,936.05603 l 6.0255,-6.02547 74.8357,-74.83574 -149.6709,-149.67097 -74.8358,74.83574 -6.0254,6.02547 A 661.45814,661.45823 44.999995 0 0 1428.75,669.97977 V 555.62499 Z m 104.3353,233.65396 a 535.35403,535.84774 44.999995 0 1 378.6544,156.69896 535.35403,535.84774 44.999995 0 1 -0.3489,757.45449 535.35403,535.84774 44.999995 0 1 -757.4545,0.3489 535.35403,535.84774 44.999995 0 1 0.34934,-757.45406 535.35403,535.84774 44.999995 0 1 378.79966,-157.04829 z"
       style="display:inline;fill:#4f4f4f;stroke-width:0.264583;fill-opacity:1"
       id="path98"
       transform="matrix(0.06945108,0,0,0.06945108,827.50421,677.31746)"
       inkscape:label="gear" /></g><g
     inkscape:label="Letters"
     inkscape:groupmode="layer"
     id="layer1"
     style="display:inline"><path
       d="m 1865.3068,727.59744 v 0.52968 144.99218 h -304.2714 v 291.0412 h -132.2911 v 317.5134 h 132.2911 v 291.0411 h 300.7383 v 2.6391 103.1875 26.4641 h 3.5331 119.0682 198.4432 V 1772.715 h 291.0432 v -291.0411 h 132.2911 v -317.5134 h -740.8457 v 317.5134 h 317.5114 v -132.2932 h 105.8204 v 238.1136 H 1746.2557 V 1058.34 h 727.6057 V 873.1193 H 2182.8182 V 727.59744 Z"
       style="display:inline;fill:url(#linearGradient48);stroke-width:0.264583"
       id="path41"
       inkscape:label="G outline" /><path
       id="path23"
       style="display:inline;fill:url(#linearGradient46);fill-opacity:1;fill-rule:nonzero;stroke-width:0.264583"
       inkscape:label="H outline"
       d="m 96.572915,807.50195 c 0,61.56381 0,123.12761 0,184.69141 44.097665,0 88.195315,0 132.292975,0 0,220.48174 0,440.96354 0,661.44534 -44.09766,0 -88.19531,0 -132.292975,0 0,61.7409 0,123.4817 0,185.2226 149.934905,0 299.869795,0 449.804695,0 0,-61.7409 0,-123.4817 0,-185.2226 -44.09701,0 -88.19401,0 -132.29102,0 0,-79.3705 0,-158.7409 0,-238.1114 132.28711,0 264.57422,0 396.86133,0 0,79.3705 0,158.7409 0,238.1114 -44.097,0 -88.19401,0 -132.29101,0 0,61.7409 0,123.4817 0,185.2226 149.93489,0 299.8698,0 449.80459,0 0,-61.7409 0,-123.4817 0,-185.2226 -44.097,0 -88.194,0 -132.29099,0 0,-220.4818 0,-440.9636 0,-661.44534 44.09699,0 88.19399,0 132.29099,0 0,-61.74023 0,-123.48047 0,-185.2207 -149.93479,0 -299.8697,0 -449.80459,0 0,61.74023 0,123.48047 0,185.2207 44.097,0 88.19401,0 132.29101,0 0,79.37114 0,158.74214 0,238.11324 -132.28711,0 -264.57422,0 -396.86133,0 0,-79.3711 0,-158.7421 0,-238.11324 44.09701,0 88.19401,0 132.29102,0 0,-61.74023 0,-123.48047 0,-185.2207 -149.9349,0 -299.86979,0 -449.804695,0 0,0.17643 0,0.35286 0,0.52929 z" /><path
       style="display:inline;fill:#d7d7d7;fill-opacity:1;stroke-width:0.264583"
       d="m 1891.7708,1190.625 h 687.9167 v 264.5833 H 2447.3958 V 1746.25 h -291.0417 v 132.2916 H 1891.7708 V 1746.25 H 1587.5 V 1455.2083 H 1455.2083 V 1190.625 H 1587.5 V 899.5833 h 304.2708 V 754.06249 h 264.5833 V 899.5833 h 291.0417 v 132.2917 h -727.6042 v 582.0833 h 595.3125 v -291.0417 h -158.75 v 132.2917 h -264.5833 z"
       id="path24"
       inkscape:label="G" /><path
       style="display:inline;fill:#d7d7d7;fill-opacity:1;stroke-width:0.264583"
       d="M 123.03125,833.4376 H 519.90628 V 965.72928 H 387.6146 V 1256.771 H 837.40631 V 965.72928 H 705.11463 V 833.4376 H 1101.9897 V 965.72928 H 969.69795 V 1680.1043 H 1101.9897 V 1812.396 H 705.11463 V 1680.1043 H 837.40631 V 1389.0626 H 387.6146 v 291.0417 H 519.90628 V 1812.396 H 123.03125 V 1680.1043 H 255.32293 V 965.72928 H 123.03125 Z"
       id="path25"
       inkscape:label="H" /></g></svg>
