<?xml version="1.0" encoding="UTF-8" standalone="no"?>
<!-- Created with Inkscape (http://www.inkscape.org/) -->

<svg
   width="10000"
   height="10000"
   viewBox="0 0 2645.8332 2645.8333"
   version="1.1"
   id="svg1"
   xml:space="preserve"
   inkscape:version="1.4.2 (ebf0e940d0, 2025-05-08)"
   sodipodi:docname="logo.svg"
   inkscape:export-filename="logo-white-64x.png"
   inkscape:export-xdpi="1"
   inkscape:export-ydpi="1"
   xmlns:inkscape="http://www.inkscape.org/namespaces/inkscape"
   xmlns:sodipodi="http://sodipodi.sourceforge.net/DTD/sodipodi-0.dtd"
   xmlns="http://www.w3.org/2000/svg"
   xmlns:svg="http://www.w3.org/2000/svg"><sodipodi:namedview
     id="namedview1"
     pagecolor="#ffffff"
     bordercolor="#000000"
     borderopacity="0.25"
     inkscape:showpageshadow="2"
     inkscape:pageopacity="0.0"
     inkscape:pagecheckerboard="0"
     inkscape:deskcolor="#d1d1d1"
     inkscape:document-units="px"
     showgrid="false"
     inkscape:zoom="0.12008834"
     inkscape:cx="2573.1058"
     inkscape:cy="5175.3567"
     inkscape:window-width="2536"
     inkscape:window-height="1390"
     inkscape:window-x="0"
     inkscape:window-y="0"
     inkscape:window-maximized="1"
     inkscape:current-layer="layer1"
     showguides="true"
     inkscape:export-bgcolor="#ffffff00"><inkscape:grid
       id="grid1"
       units="mm"
       originx="0"
       originy="0"
       spacingx="0.99999998"
       spacingy="1"
       empcolor="#0099e5"
       empopacity="0.30196078"
       color="#0099e5"
       opacity="0.14901961"
       empspacing="5"
       enabled="true"
       visible="false" /></sodipodi:namedview><defs
     id="defs1"><rect
       x="1187.681"
       y="2604.8005"
       width="5438.4092"
       height="4390.2549"
       id="rect1" /></defs><g
     inkscape:label="Logo"
     inkscape:groupmode="layer"
     id="layer1"><path
       id="path1"
       style="display:inline;fill:#d7d7d7;fill-opacity:1;stroke-width:4.14644"
       d="m 1302.3623,692.54608 c -7e-4,0 -9e-4,7e-4 0,7e-4 -13.1728,0.1036 -19.1516,16.2932 -19.1516,16.2932 0,0 -156.5945,331.84522 -212.5226,428.04182 -55.9276,96.1964 -117.82167,214.7616 -140.93864,276.6556 -23.117,61.8937 -20.886,89.4886 -20.886,89.4886 0,0 -3.2288,30.6021 -0.1619,80.1116 3.0669,49.5091 24.1012,102.5277 24.1012,102.5277 0,0 6.5722,23.2223 38.99427,77.9895 32.42197,54.7668 95.07727,102.5197 95.07727,102.5197 0,0 45.1281,34.1775 100.3335,55.6464 55.2038,21.468 135.1843,23.2666 135.1882,23.2666 0,0 79.9764,-1.7981 135.1816,-23.2666 55.2053,-21.4689 100.3329,-55.6464 100.3329,-55.6464 0,0 62.6553,-47.7529 95.0772,-102.5197 32.4221,-54.7672 38.9942,-77.9895 38.9942,-77.9895 0,0 21.0348,-53.0186 24.1015,-102.5277 3.0668,-49.5095 -0.1614,-80.1116 -0.1614,-80.1116 0,0 2.231,-27.5949 -20.8857,-89.4886 -23.1176,-61.894 -85.0116,-180.4592 -140.9398,-276.6556 -55.9281,-96.1966 -212.5226,-428.04182 -212.5226,-428.04182 0,0 -5.9786,-16.1926 -19.1529,-16.2939 v 7e-4 h -0.056 z m 31.8015,243.1837 c 7.3525,-1.4293 15.1124,30.0214 15.1124,30.0214 0,0 34.4346,121.61752 90.137,197.14332 55.7021,75.5259 106.4653,126.2861 131.8448,201.6059 25.3795,75.3196 24.5623,109.7027 24.5623,109.7027 0,0 9.8231,72.8684 -16.375,157.1937 -26.1982,84.3254 -72.0446,130.9859 -72.0446,130.9859 0,0 -15.7687,21.1809 -41.8618,39.2461 0,0 -29.3372,26.583 -9.6614,-22.4337 19.6758,-49.017 25.8911,-94.9312 25.8911,-94.9312 0,0 10.6995,-87.6755 0.6878,-147.3932 -10.0104,-59.7179 -23.8177,-90.4459 -23.8177,-90.4459 0,0 -25.5424,-50.3921 -38.3144,-80.0783 -12.7719,-29.6862 -36.5971,-98.381 -36.5971,-98.381 0,0 -25.6806,-88.3836 -37.6424,-171.1959 -11.9617,-82.8122 -17.9384,-145.38552 -17.9384,-145.38552 0,0 -1.335,-14.2247 6.0174,-15.6543 z m -276.3635,403.37302 c 3.2649,-0.4967 5.7153,3.3479 5.1994,16.9342 -1.3758,36.23 -8.7135,56.4063 0,149.9616 8.7135,93.556 32.5664,144.0058 51.3693,179.3188 18.8028,35.3123 36.2251,59.6128 36.2251,59.6128 0,0 25.7436,37.7559 57.1111,62.1892 31.3673,24.4336 43.9199,28.0626 41.2785,34.0056 -2.6415,5.9433 -30.7099,-2.64 -30.7099,-2.64 0,0 -47.2143,-14.5246 -80.2325,-38.2979 -33.0183,-23.7732 -67.0321,-60.7552 -67.0321,-60.7552 0,0 -29.3802,-36.6525 -52.1629,-92.4534 -22.78257,-55.801 -21.13707,-137.3515 -21.13707,-137.3515 0,0 -0.3238,-46.5568 15.52477,-86.5089 15.8488,-39.9521 31.4222,-70.2963 31.4222,-70.2963 0,0 7.7027,-12.8904 13.1441,-13.719 z"
       inkscape:export-filename="path1.png"
       inkscape:export-xdpi="500"
       inkscape:export-ydpi="500" /></g><g
     inkscape:groupmode="layer"
     id="layer3"
     inkscape:label="Second Letter"
     style="fill-rule:nonzero;fill:#474747;fill-opacity:1"><path
       style="display:inline;fill:#474747;fill-opacity:1;fill-rule:nonzero;stroke-width:0.264583"
       d="m 1360.893,1240.8678 9.0812,68.5485 151.8575,-18.9427 7.4355,50.2744 -192.6328,23.9063 9.5329,68.2596 192.3841,-23.8311 29.5965,193.4372 68.8068,-10.054 -27.6593,-192.8234 183.0586,-23.6141 -11.2232,-68.524 -182.8073,22.7759 -6.8948,-48.9917 108.7336,-13.7334 -12.4823,-69.3749 -106.8276,14.8911 -12.4823,-85.7743 -69.2095,10.6125 11.8551,83.879 z"
       id="path11" /><g
       inkscape:groupmode="layer"
       id="layer4"
       inkscape:label="Accent"
       style="fill-rule:nonzero;fill:#474747;fill-opacity:1"
       transform="translate(6.3674771)"><path
         style="display:inline;fill:#474747;fill-opacity:1;fill-rule:nonzero;stroke-width:0.264583"
         d="m 1706.595,1186.1734 -12.3032,63.7604 c 0,0 -8.3343,-44.4458 -32.9406,-91.0124 l 58.8904,-24.4447 z"
         id="path12" /><path
         style="display:inline;fill:#474747;fill-opacity:1;fill-rule:nonzero;stroke-width:0.264583"
         d="m 1701.7987,1188.7324 49.1634,37.5581"
         id="path13" /><path
         style="display:inline;fill:#474747;fill-opacity:1;fill-rule:nonzero;stroke-width:0.264583"
         d="m 1701.5679,1189.3484 18.6748,-54.8731 c 0,0 26.4573,56.128 30.1991,91.6749 l -56.151,23.7827 0.019,-0.5767 z"
         id="path14" /><path
         style="display:inline;fill:#474747;fill-opacity:1;fill-rule:nonzero;stroke-width:0.264583"
         d="m 1774.0149,1168.1527 -21.2005,60.5236 c 0,0 -6.0028,-36.1529 -31.6673,-91.9799 l 58.1132,-23.3991 z"
         id="path15" /><path
         style="display:inline;fill:#474747;fill-opacity:1;fill-rule:nonzero;stroke-width:0.264583"
         d="m 1764.4734,1176.1975 14.7859,-62.9023"
         id="path16" /><path
         style="display:inline;fill:#474747;fill-opacity:1;fill-rule:nonzero;stroke-width:0.264583"
         d="m 1764.671,1168.0495 14.5893,-54.7512 c 0,0 17.5576,28.6897 30.2576,92.1897 l -56.7035,23.1873 z"
         id="path17" /></g></g><g
     inkscape:groupmode="layer"
     id="layer2"
     inkscape:label="First Letter"
     style="fill-rule:nonzero;fill:#474747;fill-opacity:1"><path
       style="display:inline;fill:#474747;fill-opacity:1;fill-rule:nonzero;stroke-width:0.264583"
       d="m 821.47896,1236.8338 h 193.41544 v -101.5903 h 69.3369 v 101.6142 h 185.2091 v 69.3372 h -185.1798 v 235.2699 c 0,0 1.6394,56.6649 -74.5606,54.8128 -76.19994,-1.8521 0,-70.4113 0,-70.4113 l 5.1842,-0.084 V 1306.2007 H 821.46556 Z"
       id="path2" /><path
       style="display:inline;fill:#474747;fill-opacity:1;fill-rule:nonzero;stroke-width:0.264583"
       d="m 947.42373,1518.9118 20.8916,75.9405 41.47227,1.4061 5.0945,-70.4767 c 0,0 -48.97657,-2.7861 -67.45837,-6.8699 z"
       id="path3" /><path
       style="display:inline;fill:#474747;fill-opacity:1;fill-rule:nonzero;stroke-width:0.264583"
       d="m 907.05256,1419.2257 -104.7362,71.5617 -0.6821,-0.1984 c 0,0 78.4776,-56.3962 123.3789,-176.8813 l 0.2021,-0.6417 65.33557,33.478 z"
       id="path6" /><path
       style="display:inline;fill:#474747;fill-opacity:1;fill-rule:nonzero;stroke-width:0.264583"
       d="m 904.92506,1418.4776 85.62577,-71.9346 c 0,0 -54.31237,116.4615 -126.52857,189.426 l -62.387,-45.3821 z"
       id="path7" /><path
       style="display:inline;fill:#474747;fill-opacity:1;fill-rule:nonzero;stroke-width:0.264583"
       d="m 1186.9708,1429.061 -32.1061,-113.2617 c 0,0 78.6728,89.9783 125.2395,185.7575 l -65.1702,36.157 z"
       id="path8" /><path
       style="display:inline;fill:#474747;fill-opacity:1;fill-rule:nonzero;stroke-width:0.264583"
       d="m 1191.0531,1428.5801 23.8819,109.1336 c 0,0 -42.9649,-96.7857 -124.9097,-183.9691 l 64.839,-37.945 z"
       id="path9" /><path
       style="display:inline;fill:#474747;fill-opacity:1;fill-rule:nonzero;stroke-width:0.264583"
       d="m 990.54673,1346.5461 -0.3552,0.6578 -75.28117,120.6649 -45.2755,-2.2451 67.3519,-117.4917 32.55347,-7.4836 20.6031,5.8466 z"
       id="path10" /></g></svg>
